<svg xmlns="http://www.w3.org/2000/svg" width="25" height="25" fill="none"><path fill="#000" d="M13 10.52a2.48 2.48 0 1 0 0 4.958 2.48 2.48 0 0 0 0-4.958Zm9.93-2.45a6.532 6.532 0 0 0-.42-2.26 4 4 0 0 0-2.32-2.32 6.53 6.53 0 0 0-2.26-.42C16.64 3 16.26 3 13 3s-3.64 0-4.93.07a6.53 6.53 0 0 0-2.26.42 4 4 0 0 0-2.32 2.32 6.53 6.53 0 0 0-.42 2.26C3 9.36 3 9.74 3 13s0 3.64.07 4.93a6.86 6.86 0 0 0 .42 2.27c.2.526.51 1.004.91 1.4.398.402.88.713 1.41.91a6.532 6.532 0 0 0 2.26.42C9.36 23 9.74 23 13 23s3.64 0 4.93-.07a6.532 6.532 0 0 0 2.26-.42 3.89 3.89 0 0 0 1.41-.91c.4-.396.71-.874.91-1.4a6.6 6.6 0 0 0 .42-2.27C23 16.64 23 16.26 23 13s0-3.64-.07-4.93Zm-2.54 8a5.73 5.73 0 0 1-.39 1.8A3.86 3.86 0 0 1 17.87 20a5.73 5.73 0 0 1-1.81.35H9.94A5.73 5.73 0 0 1 8.13 20a3.51 3.51 0 0 1-1.31-.86A3.51 3.51 0 0 1 6 17.87a5.49 5.49 0 0 1-.34-1.81V9.94A5.49 5.49 0 0 1 6 8.13a3.51 3.51 0 0 1 .86-1.31c.36-.36.793-.64 1.27-.82a5.73 5.73 0 0 1 1.81-.35h6.12a5.73 5.73 0 0 1 1.81.35 3.51 3.51 0 0 1 1.31.86c.362.359.642.792.82 1.27a5.73 5.73 0 0 1 .35 1.81V13c0 2.06.07 2.27.04 3.06v.01Zm-1.6-7.44a2.38 2.38 0 0 0-1.41-1.41A4 4 0 0 0 16 7h-6a4 4 0 0 0-1.38.26 2.38 2.38 0 0 0-1.41 1.36A4.27 4.27 0 0 0 7 10v6c.01.471.098.938.26 1.38a2.38 2.38 0 0 0 1.41 1.41 4.27 4.27 0 0 0 1.33.26h6a4 4 0 0 0 1.38-.26 2.38 2.38 0 0 0 1.41-1.41 4 4 0 0 0 .26-1.38v-6c0-.472-.088-.94-.26-1.38v.01ZM13 16.82A3.81 3.81 0 0 1 9.19 13 3.82 3.82 0 1 1 13 16.82Zm4-6.89a.9.9 0 0 1 0-1.79.9.9 0 0 1 0 1.79Z"/></svg>